<svg xmlns="http://www.w3.org/2000/svg" xmlns:xlink="http://www.w3.org/1999/xlink" width="500" zoomAndPan="magnify" viewBox="0 0 375 374.999991" height="500" preserveAspectRatio="xMidYMid meet" version="1.2"><defs><clipPath id="408c92e0ae"><path d="M 2.589844 2.757812 L 372.410156 2.757812 L 372.410156 372.574219 L 2.589844 372.574219 Z M 2.589844 2.757812 "/></clipPath><clipPath id="8f4a251311"><path d="M 187.5 2.757812 C 85.378906 2.757812 2.589844 85.542969 2.589844 187.664062 C 2.589844 289.789062 85.378906 372.574219 187.5 372.574219 C 289.621094 372.574219 372.410156 289.789062 372.410156 187.664062 C 372.410156 85.542969 289.621094 2.757812 187.5 2.757812 Z M 187.5 2.757812 "/></clipPath></defs><g id="7ab47312b4"><g clip-rule="nonzero" clip-path="url(#408c92e0ae)"><g clip-rule="nonzero" clip-path="url(#8f4a251311)"><path style=" stroke:none;fill-rule:nonzero;fill:#cda3e6;fill-opacity:1;" d="M 2.589844 2.757812 L 372.410156 2.757812 L 372.410156 372.574219 L 2.589844 372.574219 Z M 2.589844 2.757812 "/></g></g><g style="fill:#ffffff;fill-opacity:1;"><g transform="translate(45.895432, 213.699912)"><path style="stroke:none" d="M 28.859375 -148.75 C 31.117188 -148.75 32.332031 -147.707031 32.5 -145.625 C 32.675781 -143.550781 32.765625 -141.300781 32.765625 -138.875 C 32.765625 -132.976562 32.9375 -125.566406 33.28125 -116.640625 C 33.632812 -107.710938 34.203125 -98.347656 34.984375 -88.546875 C 35.765625 -78.753906 36.800781 -69.519531 38.09375 -60.84375 C 39.394531 -52.175781 40.910156 -45.113281 42.640625 -39.65625 C 44.378906 -34.195312 46.375 -31.46875 48.625 -31.46875 C 50.019531 -31.46875 51.582031 -32.679688 53.3125 -35.109375 C 55.039062 -37.535156 56.898438 -40.523438 58.890625 -44.078125 C 60.890625 -47.628906 63.101562 -51.140625 65.53125 -54.609375 C 67.957031 -58.078125 70.6875 -61.023438 73.71875 -63.453125 C 76.757812 -65.878906 80.097656 -67.09375 83.734375 -67.09375 C 85.640625 -67.09375 87.847656 -65.707031 90.359375 -62.9375 C 92.878906 -60.164062 95.613281 -56.523438 98.5625 -52.015625 C 101.507812 -47.503906 104.457031 -42.734375 107.40625 -37.703125 C 110.351562 -32.679688 113.128906 -27.828125 115.734375 -23.140625 C 119.890625 -37.359375 122.703125 -51.707031 124.171875 -66.1875 C 125.648438 -80.664062 126.78125 -95.226562 127.5625 -109.875 C 128.34375 -124.53125 129.6875 -139.050781 131.59375 -153.4375 C 133.15625 -156.039062 135.84375 -158.164062 139.65625 -159.8125 C 143.46875 -161.457031 146.847656 -162.28125 149.796875 -162.28125 C 151.703125 -162.28125 153.257812 -161.410156 154.46875 -159.671875 C 155.6875 -157.941406 156.296875 -155.429688 156.296875 -152.140625 C 156.640625 -145.898438 156.984375 -139.65625 157.328125 -133.40625 C 157.679688 -127.164062 157.859375 -121.015625 157.859375 -114.953125 C 157.859375 -105.242188 157.46875 -95.359375 156.6875 -85.296875 C 155.90625 -75.242188 154.429688 -65.664062 152.265625 -56.5625 C 150.097656 -47.457031 147.109375 -39.304688 143.296875 -32.109375 C 139.484375 -24.921875 134.539062 -19.242188 128.46875 -15.078125 C 122.40625 -10.921875 114.953125 -8.84375 106.109375 -8.84375 C 101.253906 -8.84375 97.09375 -10.707031 93.625 -14.4375 C 90.15625 -18.164062 87.078125 -22.757812 84.390625 -28.21875 C 81.703125 -33.675781 78.972656 -39.003906 76.203125 -44.203125 C 71.171875 -36.234375 65.617188 -29.773438 59.546875 -24.828125 C 53.484375 -19.890625 45.6875 -17.421875 36.15625 -17.421875 C 31.289062 -17.421875 27.296875 -19.195312 24.171875 -22.75 C 21.054688 -26.3125 18.546875 -30.90625 16.640625 -36.53125 C 14.734375 -42.164062 13.300781 -48.234375 12.34375 -54.734375 C 11.394531 -61.242188 10.742188 -67.570312 10.390625 -73.71875 C 10.046875 -79.875 9.875 -85.125 9.875 -89.46875 C 9.875 -94.832031 9.914062 -100.894531 10 -107.65625 C 10.09375 -114.425781 10.613281 -120.929688 11.5625 -127.171875 C 12.519531 -133.410156 14.34375 -138.566406 17.03125 -142.640625 C 19.71875 -146.710938 23.660156 -148.75 28.859375 -148.75 Z M 28.859375 -148.75 "/></g></g><g style="fill:#ffffff;fill-opacity:1;"><g transform="translate(170.330165, 286.880541)"><path style="stroke:none" d="M 40.46875 -118.046875 C 39.507812 -118.691406 38.628906 -117.847656 37.828125 -115.515625 C 37.023438 -113.191406 36.34375 -109.976562 35.78125 -105.875 C 35.21875 -101.78125 34.734375 -97.40625 34.328125 -92.75 C 33.929688 -88.09375 33.609375 -83.597656 33.359375 -79.265625 C 33.117188 -74.929688 33 -71.394531 33 -68.65625 C 33 -58.695312 33.320312 -48.738281 33.96875 -38.78125 C 34.613281 -28.820312 34.9375 -18.867188 34.9375 -8.921875 C 34.9375 -2.171875 34.253906 2.566406 32.890625 5.296875 C 31.523438 8.023438 29.515625 9.710938 26.859375 10.359375 C 24.210938 11.003906 20.878906 11.566406 16.859375 12.046875 C 14.296875 4.015625 12.488281 -4.734375 11.4375 -14.203125 C 10.394531 -23.679688 9.753906 -33.238281 9.515625 -42.875 C 9.273438 -52.519531 9.15625 -61.597656 9.15625 -70.109375 C 9.15625 -79.742188 9.316406 -89.257812 9.640625 -98.65625 C 9.960938 -108.050781 11.125 -116.601562 13.125 -124.3125 C 15.132812 -132.019531 18.546875 -138.203125 23.359375 -142.859375 C 28.179688 -147.523438 35.171875 -149.859375 44.328125 -149.859375 C 48.179688 -149.859375 51.710938 -148.367188 54.921875 -145.390625 C 58.140625 -142.421875 61.070312 -138.644531 63.71875 -134.0625 C 66.375 -129.488281 68.90625 -124.671875 71.3125 -119.609375 C 73.71875 -114.554688 75.96875 -109.941406 78.0625 -105.765625 C 82.394531 -112.191406 86.003906 -118.175781 88.890625 -123.71875 C 91.785156 -129.257812 94.675781 -134.078125 97.5625 -138.171875 C 100.457031 -142.265625 104.03125 -145.472656 108.28125 -147.796875 C 112.539062 -150.128906 118.207031 -151.296875 125.28125 -151.296875 C 128.332031 -151.296875 131.0625 -149.25 133.46875 -145.15625 C 135.875 -141.0625 137.960938 -135.5625 139.734375 -128.65625 C 141.503906 -121.75 142.988281 -114.078125 144.1875 -105.640625 C 145.394531 -97.210938 146.398438 -88.617188 147.203125 -79.859375 C 148.003906 -71.109375 148.601562 -62.835938 149 -55.046875 C 149.40625 -47.253906 149.6875 -40.507812 149.84375 -34.8125 C 150.007812 -29.113281 150.09375 -25.140625 150.09375 -22.890625 C 150.09375 -17.910156 150.007812 -12.890625 149.84375 -7.828125 C 149.6875 -2.765625 149.128906 2.492188 148.171875 7.953125 C 143.828125 10.035156 139.726562 11.679688 135.875 12.890625 C 132.019531 14.097656 128.085938 14.703125 124.078125 14.703125 C 121.671875 14.703125 120.144531 13.65625 119.5 11.5625 C 118.851562 9.476562 118.367188 7.628906 118.046875 6.015625 C 117.722656 2.328125 117.28125 -3.164062 116.71875 -10.46875 C 116.164062 -17.78125 115.566406 -26.050781 114.921875 -35.28125 C 114.273438 -44.519531 113.585938 -53.878906 112.859375 -63.359375 C 112.140625 -72.835938 111.5 -81.59375 110.9375 -89.625 C 110.375 -97.65625 109.890625 -104.078125 109.484375 -108.890625 C 109.085938 -113.710938 108.8125 -116.046875 108.65625 -115.890625 C 106.082031 -110.421875 104.03125 -106.039062 102.5 -102.75 C 100.976562 -99.457031 99.578125 -96.285156 98.296875 -93.234375 C 96.691406 -89.378906 94.039062 -86.285156 90.34375 -83.953125 C 86.644531 -81.628906 82.546875 -79.90625 78.046875 -78.78125 C 73.554688 -77.65625 69.304688 -77.09375 65.296875 -77.09375 C 62.398438 -77.09375 60.109375 -78.78125 58.421875 -82.15625 C 56.734375 -85.53125 55.125 -89.625 53.59375 -94.4375 C 52.070312 -99.257812 50.347656 -103.878906 48.421875 -108.296875 C 46.492188 -112.710938 43.84375 -115.960938 40.46875 -118.046875 Z M 40.46875 -118.046875 "/></g></g><g style="fill:#334594;fill-opacity:1;"><g transform="translate(35.212271, 247.876703)"><path style="stroke:none" d="M 36.796875 -0.1875 L 36.75 0 L 33.203125 0 L 23.15625 -27.453125 L 13.140625 0 L 9.640625 0 L 1.640625 -32.59375 L 5.140625 -32.59375 L 11.6875 -6.03125 L 21.421875 -32.59375 L 24.921875 -32.59375 L 34.703125 -5.9375 L 41.203125 -32.59375 L 44.75 -32.59375 Z M 36.796875 -0.1875 "/></g></g><g style="fill:#334594;fill-opacity:1;"><g transform="translate(81.605139, 247.876703)"><path style="stroke:none" d="M 4.578125 -33.90625 C 4.109375 -33.90625 3.703125 -34.078125 3.359375 -34.421875 C 3.023438 -34.765625 2.859375 -35.171875 2.859375 -35.640625 C 2.859375 -36.078125 3.023438 -36.460938 3.359375 -36.796875 C 3.703125 -37.140625 4.109375 -37.3125 4.578125 -37.3125 C 5.015625 -37.3125 5.40625 -37.140625 5.75 -36.796875 C 6.09375 -36.460938 6.265625 -36.078125 6.265625 -35.640625 C 6.265625 -35.171875 6.09375 -34.765625 5.75 -34.421875 C 5.40625 -34.078125 5.015625 -33.90625 4.578125 -33.90625 Z M 2.8125 0 L 2.8125 -32.59375 L 6.21875 -32.59375 L 6.21875 0 Z M 2.8125 0 "/></g></g><g style="fill:#334594;fill-opacity:1;"><g transform="translate(90.631169, 247.876703)"><path style="stroke:none" d="M 31.421875 -32.640625 L 31.421875 -16.28125 L 31.375 -16.28125 L 31.375 -10.703125 C 31.25 -6.492188 29.738281 -3.378906 26.84375 -1.359375 C 24.476562 0.296875 21.28125 1.125 17.25 1.125 C 15.820312 1.125 14.164062 0.96875 12.28125 0.65625 C 10.394531 0.34375 8.625 -0.3125 6.96875 -1.3125 C 3.570312 -3.332031 1.796875 -6.460938 1.640625 -10.703125 L 1.640625 -16.734375 L 5.046875 -16.734375 L 5.046875 -10.796875 C 5.140625 -7.835938 6.375 -5.65625 8.75 -4.25 C 10.863281 -2.976562 13.695312 -2.34375 17.25 -2.34375 C 20.8125 -2.34375 23.460938 -3.023438 25.203125 -4.390625 C 26.953125 -5.765625 27.875 -7.898438 27.96875 -10.796875 L 27.96875 -29.1875 L 20.109375 -29.1875 L 20.109375 -32.640625 Z M 31.421875 -32.640625 "/></g></g><g style="fill:#334594;fill-opacity:1;"><g transform="translate(124.864622, 247.876703)"><path style="stroke:none" d="M 28.4375 -14.921875 C 29.613281 -13.984375 30.347656 -12.941406 30.640625 -11.796875 C 30.941406 -10.660156 31.09375 -9.550781 31.09375 -8.46875 C 31.09375 -5.375 29.972656 -3.050781 27.734375 -1.5 C 25.421875 0.1875 21.632812 1.03125 16.375 1.03125 C 13.8125 1.03125 11.65625 0.75 9.90625 0.1875 C 8.164062 -0.375 6.75 -1.117188 5.65625 -2.046875 C 4.5625 -2.984375 3.71875 -4.003906 3.125 -5.109375 C 2.539062 -6.222656 2.144531 -7.347656 1.9375 -8.484375 C 1.738281 -9.617188 1.640625 -10.65625 1.640625 -11.59375 L 5.046875 -11.59375 C 5.046875 -5.457031 8.820312 -2.390625 16.375 -2.390625 C 18.644531 -2.390625 20.488281 -2.535156 21.90625 -2.828125 C 23.320312 -3.128906 24.425781 -3.507812 25.21875 -3.96875 C 26.019531 -4.4375 26.59375 -4.941406 26.9375 -5.484375 C 27.28125 -6.035156 27.488281 -6.566406 27.5625 -7.078125 C 27.644531 -7.597656 27.6875 -8.0625 27.6875 -8.46875 C 27.6875 -9.1875 27.625 -9.847656 27.5 -10.453125 C 27.375 -11.054688 27.019531 -11.613281 26.4375 -12.125 C 25.863281 -12.644531 24.890625 -13.144531 23.515625 -13.625 C 22.148438 -14.113281 20.21875 -14.609375 17.71875 -15.109375 C 17.15625 -15.234375 16.617188 -15.34375 16.109375 -15.4375 C 15.597656 -15.53125 15.078125 -15.640625 14.546875 -15.765625 C 12.546875 -16.140625 10.796875 -16.503906 9.296875 -16.859375 C 7.804688 -17.210938 6.515625 -17.6875 5.421875 -18.28125 C 2.898438 -19.65625 1.640625 -21.914062 1.640625 -25.0625 C 1.640625 -28.28125 3.054688 -30.585938 5.890625 -31.984375 C 8.171875 -33.078125 11.632812 -33.625 16.28125 -33.625 C 20.925781 -33.625 24.445312 -32.90625 26.84375 -31.46875 C 29.613281 -29.820312 31 -27.296875 31 -23.890625 L 27.59375 -23.890625 C 27.59375 -24.578125 27.472656 -25.285156 27.234375 -26.015625 C 27.003906 -26.753906 26.503906 -27.441406 25.734375 -28.078125 C 24.972656 -28.722656 23.835938 -29.238281 22.328125 -29.625 C 20.816406 -30.007812 18.800781 -30.203125 16.28125 -30.203125 C 13.1875 -30.203125 10.828125 -29.992188 9.203125 -29.578125 C 7.585938 -29.160156 6.488281 -28.5625 5.90625 -27.78125 C 5.332031 -27 5.046875 -26.09375 5.046875 -25.0625 C 5.046875 -24.15625 5.1875 -23.40625 5.46875 -22.8125 C 5.75 -22.226562 6.253906 -21.734375 6.984375 -21.328125 C 7.722656 -20.921875 8.753906 -20.550781 10.078125 -20.21875 C 11.398438 -19.894531 13.109375 -19.53125 15.203125 -19.125 C 15.734375 -19 16.253906 -18.890625 16.765625 -18.796875 C 17.273438 -18.703125 17.8125 -18.59375 18.375 -18.46875 C 21.03125 -17.9375 23.144531 -17.390625 24.71875 -16.828125 C 26.289062 -16.273438 27.53125 -15.640625 28.4375 -14.921875 Z M 28.4375 -14.921875 "/></g></g><g style="fill:#334594;fill-opacity:1;"><g transform="translate(157.60153, 247.876703)"><path style="stroke:none" d="M 31.75 -32.59375 L 31.75 0 L 28.34375 0 L 28.34375 -27.078125 L 19.125 -12.765625 L 15.390625 -12.765625 L 6.21875 -27.03125 L 6.21875 0 L 2.8125 0 L 2.8125 -32.59375 L 6.6875 -32.59375 L 17.25 -16.1875 L 27.828125 -32.59375 Z M 31.75 -32.59375 "/></g></g><g style="fill:#334594;fill-opacity:1;"><g transform="translate(192.162342, 247.876703)"><path style="stroke:none" d="M 29.28125 0 L 25.625 0 L 21.65625 -10.75 L 9.3125 -10.75 L 5.28125 0 L 1.640625 0 L 6.875 -14.125 L 6.875 -14.21875 L 6.921875 -14.21875 L 13.75 -32.59375 L 17.203125 -32.59375 Z M 20.390625 -14.21875 L 15.484375 -27.453125 L 10.5625 -14.21875 Z M 20.390625 -14.21875 "/></g></g><g style="fill:#334594;fill-opacity:1;"><g transform="translate(223.075332, 247.876703)"><path style="stroke:none" d="M 14.03125 -19.453125 L 27.359375 0 L 23.203125 0 L 11.5 -17.0625 L 6.21875 -12.015625 L 6.21875 0 L 2.8125 0 L 2.8125 -32.59375 L 6.21875 -32.59375 L 6.21875 -16.734375 L 22.828125 -32.640625 L 27.78125 -32.640625 Z M 14.03125 -19.453125 "/></g></g><g style="fill:#334594;fill-opacity:1;"><g transform="translate(251.322608, 247.876703)"><path style="stroke:none" d="M 6.21875 -29.1875 L 6.21875 -15.34375 L 19.875 -15.34375 L 19.875 -11.921875 L 6.21875 -11.921875 L 6.21875 -3.453125 L 23.25 -3.453125 L 23.25 -0.046875 L 2.8125 -0.046875 L 2.8125 -32.59375 L 23.25 -32.59375 L 23.25 -29.1875 Z M 6.21875 -29.1875 "/></g></g><g style="fill:#334594;fill-opacity:1;"><g transform="translate(276.202656, 247.876703)"><path style="stroke:none" d="M 25.390625 0 L 19.875 -12.109375 C 19.46875 -12.078125 19.046875 -12.035156 18.609375 -11.984375 C 18.171875 -11.941406 17.71875 -11.921875 17.25 -11.921875 L 5.046875 -11.921875 L 5.046875 0 L 1.640625 0 L 1.640625 -32.59375 L 17.25 -32.59375 C 21.394531 -32.5 24.4375 -31.457031 26.375 -29.46875 C 28.15625 -27.75 29.046875 -25.347656 29.046875 -22.265625 C 29.046875 -19.203125 28.171875 -16.800781 26.421875 -15.0625 C 25.984375 -14.625 25.5 -14.234375 24.96875 -13.890625 C 24.4375 -13.546875 23.863281 -13.25 23.25 -13 L 29.1875 0 Z M 17.203125 -15.34375 C 19.078125 -15.40625 20.570312 -15.648438 21.6875 -16.078125 C 22.8125 -16.515625 23.65625 -17.078125 24.21875 -17.765625 C 24.78125 -18.453125 25.15625 -19.191406 25.34375 -19.984375 C 25.53125 -20.785156 25.625 -21.546875 25.625 -22.265625 C 25.625 -22.984375 25.53125 -23.738281 25.34375 -24.53125 C 25.15625 -25.320312 24.78125 -26.0625 24.21875 -26.75 C 23.65625 -27.4375 22.8125 -28.003906 21.6875 -28.453125 C 20.570312 -28.910156 19.0625 -29.15625 17.15625 -29.1875 L 5.046875 -29.1875 L 5.046875 -15.34375 Z M 17.203125 -15.34375 "/></g></g><g style="fill:#334594;fill-opacity:1;"><g transform="translate(307.022115, 247.876703)"><path style="stroke:none" d="M 28.4375 -14.921875 C 29.613281 -13.984375 30.347656 -12.941406 30.640625 -11.796875 C 30.941406 -10.660156 31.09375 -9.550781 31.09375 -8.46875 C 31.09375 -5.375 29.972656 -3.050781 27.734375 -1.5 C 25.421875 0.1875 21.632812 1.03125 16.375 1.03125 C 13.8125 1.03125 11.65625 0.75 9.90625 0.1875 C 8.164062 -0.375 6.75 -1.117188 5.65625 -2.046875 C 4.5625 -2.984375 3.71875 -4.003906 3.125 -5.109375 C 2.539062 -6.222656 2.144531 -7.347656 1.9375 -8.484375 C 1.738281 -9.617188 1.640625 -10.65625 1.640625 -11.59375 L 5.046875 -11.59375 C 5.046875 -5.457031 8.820312 -2.390625 16.375 -2.390625 C 18.644531 -2.390625 20.488281 -2.535156 21.90625 -2.828125 C 23.320312 -3.128906 24.425781 -3.507812 25.21875 -3.96875 C 26.019531 -4.4375 26.59375 -4.941406 26.9375 -5.484375 C 27.28125 -6.035156 27.488281 -6.566406 27.5625 -7.078125 C 27.644531 -7.597656 27.6875 -8.0625 27.6875 -8.46875 C 27.6875 -9.1875 27.625 -9.847656 27.5 -10.453125 C 27.375 -11.054688 27.019531 -11.613281 26.4375 -12.125 C 25.863281 -12.644531 24.890625 -13.144531 23.515625 -13.625 C 22.148438 -14.113281 20.21875 -14.609375 17.71875 -15.109375 C 17.15625 -15.234375 16.617188 -15.34375 16.109375 -15.4375 C 15.597656 -15.53125 15.078125 -15.640625 14.546875 -15.765625 C 12.546875 -16.140625 10.796875 -16.503906 9.296875 -16.859375 C 7.804688 -17.210938 6.515625 -17.6875 5.421875 -18.28125 C 2.898438 -19.65625 1.640625 -21.914062 1.640625 -25.0625 C 1.640625 -28.28125 3.054688 -30.585938 5.890625 -31.984375 C 8.171875 -33.078125 11.632812 -33.625 16.28125 -33.625 C 20.925781 -33.625 24.445312 -32.90625 26.84375 -31.46875 C 29.613281 -29.820312 31 -27.296875 31 -23.890625 L 27.59375 -23.890625 C 27.59375 -24.578125 27.472656 -25.285156 27.234375 -26.015625 C 27.003906 -26.753906 26.503906 -27.441406 25.734375 -28.078125 C 24.972656 -28.722656 23.835938 -29.238281 22.328125 -29.625 C 20.816406 -30.007812 18.800781 -30.203125 16.28125 -30.203125 C 13.1875 -30.203125 10.828125 -29.992188 9.203125 -29.578125 C 7.585938 -29.160156 6.488281 -28.5625 5.90625 -27.78125 C 5.332031 -27 5.046875 -26.09375 5.046875 -25.0625 C 5.046875 -24.15625 5.1875 -23.40625 5.46875 -22.8125 C 5.75 -22.226562 6.253906 -21.734375 6.984375 -21.328125 C 7.722656 -20.921875 8.753906 -20.550781 10.078125 -20.21875 C 11.398438 -19.894531 13.109375 -19.53125 15.203125 -19.125 C 15.734375 -19 16.253906 -18.890625 16.765625 -18.796875 C 17.273438 -18.703125 17.8125 -18.59375 18.375 -18.46875 C 21.03125 -17.9375 23.144531 -17.390625 24.71875 -16.828125 C 26.289062 -16.273438 27.53125 -15.640625 28.4375 -14.921875 Z M 28.4375 -14.921875 "/></g></g></g></svg>