<svg xmlns="http://www.w3.org/2000/svg" xmlns:xlink="http://www.w3.org/1999/xlink" width="500" zoomAndPan="magnify" viewBox="0 0 375 374.999991" height="500" preserveAspectRatio="xMidYMid meet" version="1.2"><defs/><g id="11bb1ebb31"><g style="fill:#334594;fill-opacity:1;"><g transform="translate(45.895432, 213.699905)"><path style="stroke:none" d="M 28.859375 -148.75 C 31.117188 -148.75 32.332031 -147.707031 32.5 -145.625 C 32.675781 -143.550781 32.765625 -141.300781 32.765625 -138.875 C 32.765625 -132.976562 32.9375 -125.566406 33.28125 -116.640625 C 33.632812 -107.710938 34.203125 -98.347656 34.984375 -88.546875 C 35.765625 -78.753906 36.800781 -69.519531 38.09375 -60.84375 C 39.394531 -52.175781 40.910156 -45.113281 42.640625 -39.65625 C 44.378906 -34.195312 46.375 -31.46875 48.625 -31.46875 C 50.019531 -31.46875 51.582031 -32.679688 53.3125 -35.109375 C 55.039062 -37.535156 56.898438 -40.523438 58.890625 -44.078125 C 60.890625 -47.628906 63.101562 -51.140625 65.53125 -54.609375 C 67.957031 -58.078125 70.6875 -61.023438 73.71875 -63.453125 C 76.757812 -65.878906 80.097656 -67.09375 83.734375 -67.09375 C 85.640625 -67.09375 87.847656 -65.707031 90.359375 -62.9375 C 92.878906 -60.164062 95.613281 -56.523438 98.5625 -52.015625 C 101.507812 -47.503906 104.457031 -42.734375 107.40625 -37.703125 C 110.351562 -32.679688 113.128906 -27.828125 115.734375 -23.140625 C 119.890625 -37.359375 122.703125 -51.707031 124.171875 -66.1875 C 125.648438 -80.664062 126.78125 -95.226562 127.5625 -109.875 C 128.34375 -124.53125 129.6875 -139.050781 131.59375 -153.4375 C 133.15625 -156.039062 135.84375 -158.164062 139.65625 -159.8125 C 143.46875 -161.457031 146.847656 -162.28125 149.796875 -162.28125 C 151.703125 -162.28125 153.257812 -161.410156 154.46875 -159.671875 C 155.6875 -157.941406 156.296875 -155.429688 156.296875 -152.140625 C 156.640625 -145.898438 156.984375 -139.65625 157.328125 -133.40625 C 157.679688 -127.164062 157.859375 -121.015625 157.859375 -114.953125 C 157.859375 -105.242188 157.46875 -95.359375 156.6875 -85.296875 C 155.90625 -75.242188 154.429688 -65.664062 152.265625 -56.5625 C 150.097656 -47.457031 147.109375 -39.304688 143.296875 -32.109375 C 139.484375 -24.921875 134.539062 -19.242188 128.46875 -15.078125 C 122.40625 -10.921875 114.953125 -8.84375 106.109375 -8.84375 C 101.253906 -8.84375 97.09375 -10.707031 93.625 -14.4375 C 90.15625 -18.164062 87.078125 -22.757812 84.390625 -28.21875 C 81.703125 -33.675781 78.972656 -39.003906 76.203125 -44.203125 C 71.171875 -36.234375 65.617188 -29.773438 59.546875 -24.828125 C 53.484375 -19.890625 45.6875 -17.421875 36.15625 -17.421875 C 31.289062 -17.421875 27.296875 -19.195312 24.171875 -22.75 C 21.054688 -26.3125 18.546875 -30.90625 16.640625 -36.53125 C 14.734375 -42.164062 13.300781 -48.234375 12.34375 -54.734375 C 11.394531 -61.242188 10.742188 -67.570312 10.390625 -73.71875 C 10.046875 -79.875 9.875 -85.125 9.875 -89.46875 C 9.875 -94.832031 9.914062 -100.894531 10 -107.65625 C 10.09375 -114.425781 10.613281 -120.929688 11.5625 -127.171875 C 12.519531 -133.410156 14.34375 -138.566406 17.03125 -142.640625 C 19.71875 -146.710938 23.660156 -148.75 28.859375 -148.75 Z M 28.859375 -148.75 "/></g></g><g style="fill:#334594;fill-opacity:1;"><g transform="translate(170.330165, 286.880528)"><path style="stroke:none" d="M 40.46875 -118.046875 C 39.507812 -118.691406 38.628906 -117.847656 37.828125 -115.515625 C 37.023438 -113.191406 36.34375 -109.976562 35.78125 -105.875 C 35.21875 -101.78125 34.734375 -97.40625 34.328125 -92.75 C 33.929688 -88.09375 33.609375 -83.597656 33.359375 -79.265625 C 33.117188 -74.929688 33 -71.394531 33 -68.65625 C 33 -58.695312 33.320312 -48.738281 33.96875 -38.78125 C 34.613281 -28.820312 34.9375 -18.867188 34.9375 -8.921875 C 34.9375 -2.171875 34.253906 2.566406 32.890625 5.296875 C 31.523438 8.023438 29.515625 9.710938 26.859375 10.359375 C 24.210938 11.003906 20.878906 11.566406 16.859375 12.046875 C 14.296875 4.015625 12.488281 -4.734375 11.4375 -14.203125 C 10.394531 -23.679688 9.753906 -33.238281 9.515625 -42.875 C 9.273438 -52.519531 9.15625 -61.597656 9.15625 -70.109375 C 9.15625 -79.742188 9.316406 -89.257812 9.640625 -98.65625 C 9.960938 -108.050781 11.125 -116.601562 13.125 -124.3125 C 15.132812 -132.019531 18.546875 -138.203125 23.359375 -142.859375 C 28.179688 -147.523438 35.171875 -149.859375 44.328125 -149.859375 C 48.179688 -149.859375 51.710938 -148.367188 54.921875 -145.390625 C 58.140625 -142.421875 61.070312 -138.644531 63.71875 -134.0625 C 66.375 -129.488281 68.90625 -124.671875 71.3125 -119.609375 C 73.71875 -114.554688 75.96875 -109.941406 78.0625 -105.765625 C 82.394531 -112.191406 86.003906 -118.175781 88.890625 -123.71875 C 91.785156 -129.257812 94.675781 -134.078125 97.5625 -138.171875 C 100.457031 -142.265625 104.03125 -145.472656 108.28125 -147.796875 C 112.539062 -150.128906 118.207031 -151.296875 125.28125 -151.296875 C 128.332031 -151.296875 131.0625 -149.25 133.46875 -145.15625 C 135.875 -141.0625 137.960938 -135.5625 139.734375 -128.65625 C 141.503906 -121.75 142.988281 -114.078125 144.1875 -105.640625 C 145.394531 -97.210938 146.398438 -88.617188 147.203125 -79.859375 C 148.003906 -71.109375 148.601562 -62.835938 149 -55.046875 C 149.40625 -47.253906 149.6875 -40.507812 149.84375 -34.8125 C 150.007812 -29.113281 150.09375 -25.140625 150.09375 -22.890625 C 150.09375 -17.910156 150.007812 -12.890625 149.84375 -7.828125 C 149.6875 -2.765625 149.128906 2.492188 148.171875 7.953125 C 143.828125 10.035156 139.726562 11.679688 135.875 12.890625 C 132.019531 14.097656 128.085938 14.703125 124.078125 14.703125 C 121.671875 14.703125 120.144531 13.65625 119.5 11.5625 C 118.851562 9.476562 118.367188 7.628906 118.046875 6.015625 C 117.722656 2.328125 117.28125 -3.164062 116.71875 -10.46875 C 116.164062 -17.78125 115.566406 -26.050781 114.921875 -35.28125 C 114.273438 -44.519531 113.585938 -53.878906 112.859375 -63.359375 C 112.140625 -72.835938 111.5 -81.59375 110.9375 -89.625 C 110.375 -97.65625 109.890625 -104.078125 109.484375 -108.890625 C 109.085938 -113.710938 108.8125 -116.046875 108.65625 -115.890625 C 106.082031 -110.421875 104.03125 -106.039062 102.5 -102.75 C 100.976562 -99.457031 99.578125 -96.285156 98.296875 -93.234375 C 96.691406 -89.378906 94.039062 -86.285156 90.34375 -83.953125 C 86.644531 -81.628906 82.546875 -79.90625 78.046875 -78.78125 C 73.554688 -77.65625 69.304688 -77.09375 65.296875 -77.09375 C 62.398438 -77.09375 60.109375 -78.78125 58.421875 -82.15625 C 56.734375 -85.53125 55.125 -89.625 53.59375 -94.4375 C 52.070312 -99.257812 50.347656 -103.878906 48.421875 -108.296875 C 46.492188 -112.710938 43.84375 -115.960938 40.46875 -118.046875 Z M 40.46875 -118.046875 "/></g></g></g></svg>